<svg xmlns="http://www.w3.org/2000/svg" viewBox="0 0 384 384" fill="none">
  <defs>
    <linearGradient id="bgGradient384" x1="0%" y1="0%" x2="100%" y2="100%">
      <stop offset="0%" style="stop-color:#ec4899;stop-opacity:1" />
      <stop offset="50%" style="stop-color:#f43f5e;stop-opacity:1" />
      <stop offset="100%" style="stop-color:#f97316;stop-opacity:1" />
    </linearGradient>
    <linearGradient id="heartGradient384" x1="0%" y1="0%" x2="100%" y2="100%">
      <stop offset="0%" style="stop-color:#ffffff;stop-opacity:1" />
      <stop offset="100%" style="stop-color:#f8fafc;stop-opacity:0.9" />
    </linearGradient>
    <filter id="glow">
      <feGaussianBlur stdDeviation="3" result="coloredBlur"/>
      <feMerge> 
        <feMergeNode in="coloredBlur"/>
        <feMergeNode in="SourceGraphic"/>
      </feMerge>
    </filter>
  </defs>

  <!-- Background circle -->
  <circle cx="192" cy="192" r="192" fill="url(#bgGradient384)"/>

  <!-- Heart icon with glow effect -->
  <path d="M192 320c-53-47-88-89-88-128 0-24 9-46 25-63C155 104 172 96 192 96s37 8 63 33c16 17 25 39 25 63 0 39-35 81-88 128z" 
        fill="url(#heartGradient384)" 
        filter="url(#glow)"/>
  
  <!-- Heart outline -->
  <path d="M192 320c-53-47-88-89-88-128 0-24 9-46 25-63C155 104 172 96 192 96s37 8 63 33c16 17 25 39 25 63 0 39-35 81-88 128z" 
        fill="none" 
        stroke="#ec4899" 
        stroke-width="4" 
        stroke-linecap="round" 
        stroke-linejoin="round"/>

  <!-- Sparkle effects -->
  <circle cx="120" cy="140" r="4" fill="#ffffff" opacity="0.9"/>
  <circle cx="264" cy="150" r="3" fill="#ffffff" opacity="0.7"/>
  <circle cx="150" cy="90" r="2.5" fill="#ffffff" opacity="0.8"/>
  <circle cx="240" cy="100" r="3.5" fill="#ffffff" opacity="0.6"/>
  <circle cx="90" cy="220" r="2" fill="#ffffff" opacity="0.5"/>
  <circle cx="280" cy="240" r="3" fill="#ffffff" opacity="0.7"/>
  <circle cx="320" cy="180" r="2" fill="#ffffff" opacity="0.6"/>
  <circle cx="60" cy="180" r="2.5" fill="#ffffff" opacity="0.5"/>
</svg>
