<svg xmlns="http://www.w3.org/2000/svg" viewBox="0 0 128 128" fill="none">
  <defs>
    <linearGradient id="bgGradient128" x1="0%" y1="0%" x2="100%" y2="100%">
      <stop offset="0%" style="stop-color:#ec4899;stop-opacity:1" />
      <stop offset="100%" style="stop-color:#f97316;stop-opacity:1" />
    </linearGradient>
    <linearGradient id="heartGradient128" x1="0%" y1="0%" x2="100%" y2="100%">
      <stop offset="0%" style="stop-color:#ffffff;stop-opacity:1" />
      <stop offset="100%" style="stop-color:#f8fafc;stop-opacity:1" />
    </linearGradient>
  </defs>
  <circle cx="64" cy="64" r="64" fill="url(#bgGradient128)"/>
  <path d="M64 106.7c-17.6-15.7-29.3-29.6-29.3-42.7 0-8 3-15.3 8.3-21C54.9 37.3 61.3 32 64 32s9.1 5.3 21.3 11C90 48.7 93.3 56 93.3 64c0 13.1-11.7 27-29.3 42.7z" fill="url(#heartGradient128)"/>
  <path d="M64 106.7c-17.6-15.7-29.3-29.6-29.3-42.7 0-8 3-15.3 8.3-21C54.9 37.3 61.3 32 64 32s9.1 5.3 21.3 11C90 48.7 93.3 56 93.3 64c0 13.1-11.7 27-29.3 42.7z" fill="none" stroke="#ec4899" stroke-width="2" stroke-linecap="round" stroke-linejoin="round"/>
</svg>
