<svg xmlns="http://www.w3.org/2000/svg" viewBox="0 0 192 192" fill="none">
  <!-- Background gradient -->
  <defs>
    <linearGradient id="bgGradient192" x1="0%" y1="0%" x2="100%" y2="100%">
      <stop offset="0%" style="stop-color:#ec4899;stop-opacity:1" />
      <stop offset="100%" style="stop-color:#f97316;stop-opacity:1" />
    </linearGradient>
    <linearGradient id="heartGradient192" x1="0%" y1="0%" x2="100%" y2="100%">
      <stop offset="0%" style="stop-color:#ffffff;stop-opacity:1" />
      <stop offset="100%" style="stop-color:#f8fafc;stop-opacity:1" />
    </linearGradient>
  </defs>

  <!-- Background circle -->
  <circle cx="96" cy="96" r="96" fill="url(#bgGradient192)"/>

  <!-- Heart icon -->
  <path d="M96 160c-26.5-23.5-44-44.5-44-64 0-12 4.5-23 12.5-31.5C76.5 52 86 48 96 48s19.5 4 31.5 16.5C135.5 73 140 84 140 96c0 19.5-17.5 40.5-44 64z" fill="url(#heartGradient192)"/>
  <path d="M96 160c-26.5-23.5-44-44.5-44-64 0-12 4.5-23 12.5-31.5C76.5 52 86 48 96 48s19.5 4 31.5 16.5C135.5 73 140 84 140 96c0 19.5-17.5 40.5-44 64z" fill="none" stroke="#ec4899" stroke-width="3" stroke-linecap="round" stroke-linejoin="round"/>

  <!-- Sparkle effects -->
  <circle cx="60" cy="70" r="3" fill="#ffffff" opacity="0.9"/>
  <circle cx="132" cy="75" r="2.5" fill="#ffffff" opacity="0.7"/>
  <circle cx="75" cy="45" r="2" fill="#ffffff" opacity="0.8"/>
  <circle cx="120" cy="50" r="2.5" fill="#ffffff" opacity="0.6"/>
  <circle cx="45" cy="110" r="1.5" fill="#ffffff" opacity="0.5"/>
  <circle cx="140" cy="120" r="2" fill="#ffffff" opacity="0.6"/>
</svg>
