<svg xmlns="http://www.w3.org/2000/svg" viewBox="0 0 152 152" fill="none">
  <defs>
    <linearGradient id="bgGradient152" x1="0%" y1="0%" x2="100%" y2="100%">
      <stop offset="0%" style="stop-color:#ec4899;stop-opacity:1" />
      <stop offset="100%" style="stop-color:#f97316;stop-opacity:1" />
    </linearGradient>
    <linearGradient id="heartGradient152" x1="0%" y1="0%" x2="100%" y2="100%">
      <stop offset="0%" style="stop-color:#ffffff;stop-opacity:1" />
      <stop offset="100%" style="stop-color:#f8fafc;stop-opacity:1" />
    </linearGradient>
  </defs>
  <circle cx="76" cy="76" r="76" fill="url(#bgGradient152)"/>
  <path d="M76 128c-22.1-19.7-36.9-37.4-36.9-53.8 0-10.1 3.8-19.3 10.5-26.8C62.1 42.6 71.3 36 76 36s13.9 6.6 26.5 11.4C109.1 54.9 113 64.1 113 74.2c0 16.4-14.8 34.1-37 53.8z" fill="url(#heartGradient152)"/>
  <path d="M76 128c-22.1-19.7-36.9-37.4-36.9-53.8 0-10.1 3.8-19.3 10.5-26.8C62.1 42.6 71.3 36 76 36s13.9 6.6 26.5 11.4C109.1 54.9 113 64.1 113 74.2c0 16.4-14.8 34.1-37 53.8z" fill="none" stroke="#ec4899" stroke-width="2" stroke-linecap="round" stroke-linejoin="round"/>
</svg>
