<svg xmlns="http://www.w3.org/2000/svg" viewBox="0 0 96 96" fill="none">
  <defs>
    <linearGradient id="bgGradient96" x1="0%" y1="0%" x2="100%" y2="100%">
      <stop offset="0%" style="stop-color:#ec4899;stop-opacity:1" />
      <stop offset="100%" style="stop-color:#f97316;stop-opacity:1" />
    </linearGradient>
    <linearGradient id="heartGradient96" x1="0%" y1="0%" x2="100%" y2="100%">
      <stop offset="0%" style="stop-color:#ffffff;stop-opacity:1" />
      <stop offset="100%" style="stop-color:#f8fafc;stop-opacity:1" />
    </linearGradient>
  </defs>
  <circle cx="48" cy="48" r="48" fill="url(#bgGradient96)"/>
  <path d="M48 80c-13.2-11.8-22-22.2-22-32 0-6 2.2-11.5 6.2-15.8C38.2 28 42 24 48 24s9.8 4 15.8 8.2C67.8 36.5 70 42 70 48c0 9.8-8.8 20.2-22 32z" fill="url(#heartGradient96)"/>
  <path d="M48 80c-13.2-11.8-22-22.2-22-32 0-6 2.2-11.5 6.2-15.8C38.2 28 42 24 48 24s9.8 4 15.8 8.2C67.8 36.5 70 42 70 48c0 9.8-8.8 20.2-22 32z" fill="none" stroke="#ec4899" stroke-width="1.5" stroke-linecap="round" stroke-linejoin="round"/>
</svg>
