<svg xmlns="http://www.w3.org/2000/svg" viewBox="0 0 144 144" fill="none">
  <defs>
    <linearGradient id="bgGradient144" x1="0%" y1="0%" x2="100%" y2="100%">
      <stop offset="0%" style="stop-color:#ec4899;stop-opacity:1" />
      <stop offset="100%" style="stop-color:#f97316;stop-opacity:1" />
    </linearGradient>
    <linearGradient id="heartGradient144" x1="0%" y1="0%" x2="100%" y2="100%">
      <stop offset="0%" style="stop-color:#ffffff;stop-opacity:1" />
      <stop offset="100%" style="stop-color:#f8fafc;stop-opacity:1" />
    </linearGradient>
  </defs>
  <circle cx="72" cy="72" r="72" fill="url(#bgGradient144)"/>
  <path d="M72 120c-20.9-18.6-34.9-35.3-34.9-50.9 0-9.5 3.6-18.2 9.9-25.3C59.1 40.2 67.6 34 72 34s12.9 6.2 25.1 9.8C102.3 50.9 106 59.6 106 69.1c0 15.6-14 32.3-34 50.9z" fill="url(#heartGradient144)"/>
  <path d="M72 120c-20.9-18.6-34.9-35.3-34.9-50.9 0-9.5 3.6-18.2 9.9-25.3C59.1 40.2 67.6 34 72 34s12.9 6.2 25.1 9.8C102.3 50.9 106 59.6 106 69.1c0 15.6-14 32.3-34 50.9z" fill="none" stroke="#ec4899" stroke-width="2" stroke-linecap="round" stroke-linejoin="round"/>
</svg>
