<svg xmlns="http://www.w3.org/2000/svg" width="16" height="16" viewBox="0 0 16 16">
  <path fill="#ec4899" d="M8 14.5c-0.3-2.2-1.8-3.8-3.2-4.8C3.4 8.8 2.3 8 2.3 6.8c0-1.4 1.1-2.5 2.5-2.5s2.2 1.1 2.2 2.5c0 0.4-0.4 0.7-0.7 0.7s-0.7-0.3-0.7-0.7c0-0.4-0.3-0.7-0.7-0.7s-0.7 0.3-0.7 0.7c0 0.7 0.7 1.4 1.8 2.1 1.1 0.7 2.2 1.8 2.5 3.2z"/>
  <path fill="#ec4899" opacity="0.8" d="M5.8 6.8c-0.4-0.7-1.1-1.1-1.8-1.1s-1.4 0.4-1.4 1.1c0 0.4 0.4 0.7 0.7 0.7s0.7-0.3 0.7-0.7c0-0.4 0.4-0.7 0.7-0.7s0.7 0.3 0.7 0.7c0 0.4-0.4 0.7-0.7 0.7s-0.7-0.3-0.7-0.7c0-0.7 0.7-1.1 1.1-1.1s1.1 0.4 1.1 1.1z"/>
  <path fill="#ec4899" opacity="0.8" d="M10.2 6.8c0.4-0.7 1.1-1.1 1.8-1.1s1.4 0.4 1.4 1.1c0 0.4-0.4 0.7-0.7 0.7s-0.7-0.3-0.7-0.7c0-0.4-0.4-0.7-0.7-0.7s-0.7 0.3-0.7 0.7c0 0.4 0.4 0.7 0.7 0.7s0.7-0.3 0.7-0.7c0-0.7-0.7-1.1-1.1-1.1s-1.1 0.4-1.1 1.1z"/>
</svg>
